<svg version="1.1" xmlns="http://www.w3.org/2000/svg" viewBox="0 0 1922.3864119838572 1133.6398777464947" width="1922.3864119838572" height="1133.6398777464947">
  <!-- svg-source:excalidraw -->
  
  <defs>
    <style>
      @font-face {
        font-family: "Virgil";
        src: url("https://excalidraw.com/Virgil.woff2");
      }
      @font-face {
        font-family: "Cascadia";
        src: url("https://excalidraw.com/Cascadia.woff2");
      }
    </style>
  </defs>
  <g stroke-linecap="round"><g transform="translate(745.7550756808334 886.5158074831138) rotate(383.0026198297271 107.3571054886346 -72.17345865218755)" fill-rule="evenodd"><path d="M0 0 L1.58 14.57 L6 87.14 L9.18 113.88 L14.12 138.36 L17.42 149.09 L21.36 158.46 L26 166.2 L31.43 172.05 L45.9 181.87 L64.92 191.09 L86.92 198.31 L110.34 202.07 L133.6 200.97 L144.69 198.15 L155.15 193.57 L164.79 187.06 L173.42 178.44 L180.84 167.53 L186.84 154.16 L191.9 137.03 L196.56 115.41 L200.79 89.95 L204.55 61.29 L210.51 -3.04 L214.13 -72.43 L215.1 -141.72 L213.12 -205.73 L210.92 -234.15 L207.88 -259.31 L203.94 -280.58 L199.07 -297.3 L192.66 -310.41 L184.31 -321.31 L174.29 -330.13 L162.87 -336.95 L150.32 -341.89 L136.92 -345.04 L122.94 -346.52 L108.64 -346.42 L80.21 -341.92 L53.79 -332.37 L42.02 -325.96 L31.57 -318.6 L22.71 -310.39 L15.72 -301.43 L10.39 -290.43 L6.29 -276.31 L3.28 -259.52 L1.24 -240.49 L-0.4 -197.53 L0.36 -150.97 L7.33 -25.34 L7.93 0" stroke="none" stroke-width="0" fill="#36c5f0" fill-rule="evenodd"></path><path d="M0 0 C5.24 28.68, 0.29 146.36, 31.43 172.05 C62.57 197.74, 158.9 232.38, 186.84 154.16 C214.78 75.93, 227.59 -221.37, 199.07 -297.3 C170.55 -373.23, 47.57 -350.98, 15.72 -301.43 C-16.14 -251.88, 9.23 -50.24, 7.93 0 M0 0 C5.24 28.68, 0.29 146.36, 31.43 172.05 C62.57 197.74, 158.9 232.38, 186.84 154.16 C214.78 75.93, 227.59 -221.37, 199.07 -297.3 C170.55 -373.23, 47.57 -350.98, 15.72 -301.43 C-16.14 -251.88, 9.23 -50.24, 7.93 0" stroke="#36c5f0" stroke-width="1" fill="none"></path></g></g><g stroke-linecap="round"><g transform="translate(773.9739817225529 210.50662846204133) rotate(113.84565955046573 37.52125969527958 100.29982403827157)" fill-rule="evenodd"><path d="M0 0 L-29.46 19.38 L-47.61 33.73 L-55.47 41.98 L-61.73 50.91 L-73.2 72.53 L-83.66 98.15 L-87.16 111.42 L-88.77 124.45 L-87.95 136.81 L-84.17 148.09 L-76.87 159.18 L-66.34 170.87 L-53.29 182.56 L-38.4 193.67 L-22.38 203.62 L-5.92 211.8 L10.27 217.63 L25.51 220.53 L41.04 220.78 L58.07 219.04 L75.81 215.33 L93.5 209.68 L110.36 202.09 L125.62 192.58 L138.51 181.18 L148.25 167.89 L151.76 160 L154.45 150.69 L157.66 128.67 L158.56 103.58 L157.83 77.15 L152.11 -7.03 L153.38 -15.47 L156.05 -19.54 L159.25 -20.23 L162.1 -18.51 L163.74 -15.37 L163.27 -11.79 L159.84 -8.75 L152.55 -7.23 L0 0" stroke="none" stroke-width="0" fill="#36c5f0" fill-rule="evenodd"></path><path d="M0 0 C-10.29 8.48, -47.7 26.23, -61.73 50.91 C-75.76 75.59, -98.71 119.82, -84.17 148.09 C-69.63 176.36, -13.22 217.23, 25.51 220.53 C64.25 223.84, 127.15 205.82, 148.25 167.89 C169.35 129.97, 151.4 22.16, 152.11 -7.03 C152.83 -36.22, 177.9 -8.4, 152.55 -7.23 C127.19 -6.05, 25.42 -1.2, 0 0 M0 0 C-10.29 8.48, -47.7 26.23, -61.73 50.91 C-75.76 75.59, -98.71 119.82, -84.17 148.09 C-69.63 176.36, -13.22 217.23, 25.51 220.53 C64.25 223.84, 127.15 205.82, 148.25 167.89 C169.35 129.97, 151.4 22.16, 152.11 -7.03 C152.83 -36.22, 177.9 -8.4, 152.55 -7.23 C127.19 -6.05, 25.42 -1.2, 0 0" stroke="#36c5f0" stroke-width="1" fill="none"></path></g></g><g stroke-linecap="round"><g transform="translate(1232.4454212514938 422.5121778023706) rotate(204.01607709227727 37.52125969527958 100.29982403827157)" fill-rule="evenodd"><path d="M0 0 L-29.46 19.38 L-47.61 33.73 L-55.47 41.98 L-61.73 50.91 L-73.2 72.53 L-83.66 98.15 L-87.16 111.42 L-88.77 124.45 L-87.95 136.81 L-84.17 148.09 L-76.87 159.18 L-66.34 170.87 L-53.29 182.56 L-38.4 193.67 L-22.38 203.62 L-5.92 211.8 L10.27 217.63 L25.51 220.53 L41.04 220.78 L58.07 219.04 L75.81 215.33 L93.5 209.68 L110.36 202.09 L125.62 192.58 L138.51 181.18 L148.25 167.89 L151.76 160 L154.45 150.69 L157.66 128.67 L158.56 103.58 L157.83 77.15 L152.11 -7.03 L153.38 -15.47 L156.05 -19.54 L159.25 -20.23 L162.1 -18.51 L163.74 -15.37 L163.27 -11.79 L159.84 -8.75 L152.55 -7.23 L0 0" stroke="none" stroke-width="0" fill="#36c5f0" fill-rule="evenodd"></path><path d="M0 0 C-10.29 8.48, -47.7 26.23, -61.73 50.91 C-75.76 75.59, -98.71 119.82, -84.17 148.09 C-69.63 176.36, -13.22 217.23, 25.51 220.53 C64.25 223.84, 127.15 205.82, 148.25 167.89 C169.35 129.97, 151.4 22.16, 152.11 -7.03 C152.83 -36.22, 177.9 -8.4, 152.55 -7.23 C127.19 -6.05, 25.42 -1.2, 0 0 M0 0 C-10.29 8.48, -47.7 26.23, -61.73 50.91 C-75.76 75.59, -98.71 119.82, -84.17 148.09 C-69.63 176.36, -13.22 217.23, 25.51 220.53 C64.25 223.84, 127.15 205.82, 148.25 167.89 C169.35 129.97, 151.4 22.16, 152.11 -7.03 C152.83 -36.22, 177.9 -8.4, 152.55 -7.23 C127.19 -6.05, 25.42 -1.2, 0 0" stroke="#36c5f0" stroke-width="1" fill="none"></path></g></g><g stroke-linecap="round"><g transform="translate(995.7190804627458 344.75611151175303) rotate(203.84565955046583 101.72530827785079 -72.17345865218749)" fill-rule="evenodd"><path d="M0 0 L1.52 14.57 L5.77 87.14 L8.83 113.88 L13.58 138.36 L16.76 149.09 L20.54 158.46 L25.02 166.2 L30.24 172.05 L44.16 181.87 L62.46 191.09 L83.62 198.31 L106.15 202.07 L128.53 200.97 L139.2 198.15 L149.26 193.57 L158.54 187.06 L166.84 178.44 L173.97 167.53 L179.75 154.16 L184.61 137.03 L189.1 115.41 L193.17 89.95 L196.79 61.29 L202.52 -3.04 L206 -72.43 L206.93 -141.72 L205.03 -205.73 L202.92 -234.15 L199.99 -259.31 L196.2 -280.58 L191.51 -297.3 L185.36 -310.41 L177.36 -321.31 L167.78 -330.13 L156.86 -336.95 L144.87 -341.89 L132.06 -345.04 L118.68 -346.52 L105 -346.42 L77.72 -341.92 L52.29 -332.37 L40.9 -325.96 L30.74 -318.6 L22.06 -310.39 L15.12 -301.43 L9.72 -290.43 L5.41 -276.31 L2.09 -259.52 L-0.35 -240.49 L-3.03 -197.53 L-3.46 -150.97 L0.06 -25.34 L0 0" stroke="none" stroke-width="0" fill="#2eb67d" fill-rule="evenodd"></path><path d="M0 0 C5.04 28.68, 0.28 146.36, 30.24 172.05 C60.2 197.74, 152.87 232.38, 179.75 154.16 C206.63 75.93, 218.95 -221.37, 191.51 -297.3 C164.07 -373.23, 47.04 -350.98, 15.12 -301.43 C-16.8 -251.88, 2.52 -50.24, 0 0 M0 0 C5.04 28.68, 0.28 146.36, 30.24 172.05 C60.2 197.74, 152.87 232.38, 179.75 154.16 C206.63 75.93, 218.95 -221.37, 191.51 -297.3 C164.07 -373.23, 47.04 -350.98, 15.12 -301.43 C-16.8 -251.88, 2.52 -50.24, 0 0" stroke="#2eb67d" stroke-width="1" fill="none"></path></g></g><g stroke-linecap="round"><g transform="translate(1113.662520440846 678.929154055824) rotate(293.3900840754863 37.52125969527958 100.29982403827154)" fill-rule="evenodd"><path d="M0 0 L-29.46 19.38 L-47.61 33.73 L-55.47 41.98 L-61.73 50.91 L-73.2 72.53 L-83.66 98.15 L-87.16 111.42 L-88.77 124.45 L-87.95 136.81 L-84.17 148.09 L-76.87 159.18 L-66.34 170.87 L-53.29 182.56 L-38.4 193.67 L-22.38 203.62 L-5.92 211.8 L10.27 217.63 L25.51 220.53 L41.04 220.78 L58.07 219.04 L75.81 215.33 L93.5 209.68 L110.36 202.09 L125.62 192.58 L138.51 181.18 L148.25 167.89 L151.76 160 L154.45 150.69 L157.66 128.67 L158.56 103.58 L157.83 77.15 L152.11 -7.03 L153.38 -15.47 L156.05 -19.54 L159.25 -20.23 L162.1 -18.51 L163.74 -15.37 L163.27 -11.79 L159.84 -8.75 L152.55 -7.23 L0 0" stroke="none" stroke-width="0" fill="#2eb67d" fill-rule="evenodd"></path><path d="M0 0 C-10.29 8.48, -47.7 26.23, -61.73 50.91 C-75.76 75.59, -98.71 119.82, -84.17 148.09 C-69.63 176.36, -13.22 217.23, 25.51 220.53 C64.25 223.84, 127.15 205.82, 148.25 167.89 C169.35 129.97, 151.4 22.16, 152.11 -7.03 C152.83 -36.22, 177.9 -8.4, 152.55 -7.23 C127.19 -6.05, 25.42 -1.2, 0 0 M0 0 C-10.29 8.48, -47.7 26.23, -61.73 50.91 C-75.76 75.59, -98.71 119.82, -84.17 148.09 C-69.63 176.36, -13.22 217.23, 25.51 220.53 C64.25 223.84, 127.15 205.82, 148.25 167.89 C169.35 129.97, 151.4 22.16, 152.11 -7.03 C152.83 -36.22, 177.9 -8.4, 152.55 -7.23 C127.19 -6.05, 25.42 -1.2, 0 0" stroke="#2eb67d" stroke-width="1" fill="none"></path></g></g><g stroke-linecap="round"><g transform="translate(639.5323672522063 460.002377850735) rotate(382.656264710104 37.52125969527964 100.29982403827154)" fill-rule="evenodd"><path d="M0 0 L-29.46 19.38 L-47.61 33.73 L-55.47 41.98 L-61.73 50.91 L-73.2 72.53 L-83.66 98.15 L-87.16 111.42 L-88.77 124.45 L-87.95 136.81 L-84.17 148.09 L-76.87 159.18 L-66.34 170.87 L-53.29 182.56 L-38.4 193.67 L-22.38 203.62 L-5.92 211.8 L10.27 217.63 L25.51 220.53 L41.04 220.78 L58.07 219.04 L75.81 215.33 L93.5 209.68 L110.36 202.09 L125.62 192.58 L138.51 181.18 L148.25 167.89 L151.76 160 L154.45 150.69 L157.66 128.67 L158.56 103.58 L157.83 77.15 L152.11 -7.03 L153.38 -15.47 L156.05 -19.54 L159.25 -20.23 L162.1 -18.51 L163.74 -15.37 L163.27 -11.79 L159.84 -8.75 L152.55 -7.23 L0 0" stroke="none" stroke-width="0" fill="#2eb67d" fill-rule="evenodd"></path><path d="M0 0 C-10.29 8.48, -47.7 26.23, -61.73 50.91 C-75.76 75.59, -98.71 119.82, -84.17 148.09 C-69.63 176.36, -13.22 217.23, 25.51 220.53 C64.25 223.84, 127.15 205.82, 148.25 167.89 C169.35 129.97, 151.4 22.16, 152.11 -7.03 C152.83 -36.22, 177.9 -8.4, 152.55 -7.23 C127.19 -6.05, 25.42 -1.2, 0 0 M0 0 C-10.29 8.48, -47.7 26.23, -61.73 50.91 C-75.76 75.59, -98.71 119.82, -84.17 148.09 C-69.63 176.36, -13.22 217.23, 25.51 220.53 C64.25 223.84, 127.15 205.82, 148.25 167.89 C169.35 129.97, 151.4 22.16, 152.11 -7.03 C152.83 -36.22, 177.9 -8.4, 152.55 -7.23 C127.19 -6.05, 25.42 -1.2, 0 0" stroke="#2eb67d" stroke-width="1" fill="none"></path></g></g><g stroke-linecap="round"><g transform="translate(489.07660025370416 -50.759863530766836) rotate(26.977617348946612 -179.76257606079383 280.31921358743654)" fill-rule="evenodd"><path d="M-1.73 1.56 L77.73 104.74 L-288.59 311.1 L96.8 432.24 L58.62 560.84 L-456.94 390.96 L-457.15 226.12 L0.87 -0.84" stroke="none" stroke-width="0" fill="#000000" fill-rule="evenodd"></path><path d="M-1.49 0.4 C22.77 28.66, 42.4 61.43, 75.4 103.32 M0.2 -0.09 C28.91 40.08, 59.05 79.55, 77.4 103.84 M77.78 104.45 C-67.6 187.75, -211.77 267.98, -289.9 310.08 M76.33 104.04 C-12.45 156.26, -101.67 206.23, -288.88 310.43 M-288.58 310.91 C-210.08 336.66, -129.54 362.17, 98.56 434.35 M-289.37 310.24 C-136.85 357.17, 14.53 404.56, 98.07 433.49 M100.13 431.43 C86.39 470.56, 74.1 509.27, 57.11 561.09 M98.45 433.75 C82.76 481.36, 68.3 528.9, 58.03 558.86 M58.23 558.6 C-89.87 511.04, -237.69 461.88, -457.13 390.51 M58.17 559.12 C-68.2 516.13, -194.39 474.76, -458.07 390.11 M-459.66 390.27 C-457.61 344.21, -458.14 297.5, -457.46 226.22 M-457.94 389.73 C-457.58 340.56, -456.59 289.91, -457.37 227.2 M-458.59 228.14 C-351.17 174.32, -245.82 123.04, -0.38 -0.45 M-458.04 227.63 C-329.77 162.42, -202.26 99.42, -0.25 0.28 M0 0 C0 0, 0 0, 0 0 M0 0 C0 0, 0 0, 0 0" stroke="#000000" stroke-width="1" fill="none"></path></g></g><g stroke-linecap="round"><g transform="translate(1436.5031353323216 612.2202933134517) rotate(26.977617348946612 189.5558125090422 280.29276208637253)" fill-rule="evenodd"><path d="M1.56 0.91 L-80.83 104.73 L305.67 317.38 L-104.83 433.5 L-60.04 560.15 L484.05 390.93 L482.08 228.26 L-0.84 1.98" stroke="none" stroke-width="0" fill="#000000" fill-rule="evenodd"></path><path d="M0.4 0.61 C-28.4 32.71, -52.37 67.76, -82.25 106.15 M-0.09 -0.05 C-21.03 26.77, -41.84 52.75, -81.73 105.42 M-81.12 103.96 C54.32 176.84, 187.3 250.59, 304.67 318.34 M-81.5 104.74 C11.83 157.22, 103.66 208.28, 305 318.45 M305.45 318.08 C210.7 345.24, 116.87 372.18, -102.78 434.22 M304.82 319.08 C168.18 355.38, 29.81 393.66, -103.59 433.31 M-105.64 433.27 C-91.76 474.64, -78.01 515, -59.79 560.83 M-103.32 432.88 C-90.17 470.99, -77.87 507.81, -62.02 559.12 M-62.28 558.91 C66.25 520.27, 193.33 481.19, 483.6 389.8 M-61.76 559.04 C116.96 505.07, 294.79 449.86, 483.2 390.17 M483.36 389.74 C484.34 347.72, 483.33 307.64, 482.17 227.58 M482.83 389.49 C485.45 351.78, 485.23 313.29, 483.16 226.7 M484.09 227.74 C368.73 171.89, 255.89 117.86, -0.45 -0.17 M483.58 227.78 C334.49 156.99, 187.01 86.99, 0.28 -0.25 M0 0 C0 0, 0 0, 0 0 M0 0 C0 0, 0 0, 0 0" stroke="#000000" stroke-width="1" fill="none"></path></g></g></svg>